<svg xmlns="http://www.w3.org/2000/svg" viewBox="0 0 1100 700" style="font-family: 'Inter', -apple-system, BlinkMacSystemFont, sans-serif;">
  <defs>
    <!-- Refined color palette -->
    <linearGradient id="floorFill" x1="0%" y1="0%" x2="100%" y2="100%">
      <stop offset="0%" style="stop-color:#f8fafc"/>
      <stop offset="100%" style="stop-color:#f1f5f9"/>
    </linearGradient>

    <!-- Patterns -->
    <pattern id="gridPattern" width="20" height="20" patternUnits="userSpaceOnUse">
      <path d="M 20 0 L 0 0 0 20" fill="none" stroke="#e2e8f0" stroke-width="0.5"/>
    </pattern>

    <pattern id="wcPattern" width="8" height="8" patternUnits="userSpaceOnUse">
      <rect width="8" height="8" fill="#f1f5f9"/>
      <circle cx="4" cy="4" r="1" fill="#cbd5e1"/>
    </pattern>

    <!-- Desk symbol -->
    <symbol id="desk" viewBox="0 0 40 24">
      <rect x="2" y="2" width="36" height="20" rx="2" fill="#fff" stroke="#94a3b8" stroke-width="1"/>
      <rect x="6" y="6" width="12" height="8" rx="1" fill="#e2e8f0"/>
      <circle cx="30" cy="12" r="5" fill="none" stroke="#cbd5e1" stroke-width="1"/>
    </symbol>

    <!-- Chair symbol -->
    <symbol id="chair" viewBox="0 0 12 12">
      <circle cx="6" cy="6" r="5" fill="#64748b" opacity="0.15"/>
      <circle cx="6" cy="6" r="3" fill="#64748b" opacity="0.25"/>
    </symbol>

    <!-- Meeting table -->
    <symbol id="meetingTable" viewBox="0 0 60 30">
      <rect x="2" y="2" width="56" height="26" rx="3" fill="#f8fafc" stroke="#94a3b8" stroke-width="1"/>
    </symbol>
  </defs>

  <!-- Background -->
  <rect width="1100" height="700" fill="#fff"/>

  <!-- Title -->
  <text x="550" y="40" text-anchor="middle" font-size="20" font-weight="600" fill="#0f172a" letter-spacing="-0.02em">Hovfaret 13</text>
  <text x="550" y="62" text-anchor="middle" font-size="13" font-weight="500" fill="#64748b">3. etasje — Kontorplan</text>

  <!-- Main building outline -->
  <g transform="translate(80, 90)">
    <!-- Outer walls -->
    <path d="
      M 60 0
      L 920 0
      L 920 520
      L 60 520
      L 60 400
      Q 0 400 0 340
      L 0 180
      Q 0 120 60 120
      L 60 0
    " fill="url(#floorFill)" stroke="#334155" stroke-width="2"/>

    <!-- Window marks on exterior (subtle) -->
    <g stroke="#94a3b8" stroke-width="1" opacity="0.6">
      <!-- Top windows -->
      <line x1="120" y1="0" x2="120" y2="-8"/>
      <line x1="180" y1="0" x2="180" y2="-8"/>
      <line x1="240" y1="0" x2="240" y2="-8"/>
      <line x1="300" y1="0" x2="300" y2="-8"/>
      <line x1="360" y1="0" x2="360" y2="-8"/>
      <line x1="420" y1="0" x2="420" y2="-8"/>
      <line x1="480" y1="0" x2="480" y2="-8"/>
      <line x1="540" y1="0" x2="540" y2="-8"/>
      <line x1="600" y1="0" x2="600" y2="-8"/>
      <line x1="660" y1="0" x2="660" y2="-8"/>
      <line x1="720" y1="0" x2="720" y2="-8"/>
      <line x1="780" y1="0" x2="780" y2="-8"/>
      <line x1="840" y1="0" x2="840" y2="-8"/>

      <!-- Bottom windows -->
      <line x1="120" y1="520" x2="120" y2="528"/>
      <line x1="180" y1="520" x2="180" y2="528"/>
      <line x1="240" y1="520" x2="240" y2="528"/>
      <line x1="300" y1="520" x2="300" y2="528"/>
      <line x1="360" y1="520" x2="360" y2="528"/>
      <line x1="420" y1="520" x2="420" y2="528"/>
      <line x1="480" y1="520" x2="480" y2="528"/>
      <line x1="540" y1="520" x2="540" y2="528"/>
      <line x1="600" y1="520" x2="600" y2="528"/>

      <!-- Right side windows -->
      <line x1="920" y1="60" x2="928" y2="60"/>
      <line x1="920" y1="120" x2="928" y2="120"/>
      <line x1="920" y1="180" x2="928" y2="180"/>
      <line x1="920" y1="240" x2="928" y2="240"/>
      <line x1="920" y1="300" x2="928" y2="300"/>
      <line x1="920" y1="360" x2="928" y2="360"/>
      <line x1="920" y1="420" x2="928" y2="420"/>
      <line x1="920" y1="480" x2="928" y2="480"/>
    </g>

    <!-- Interior walls -->
    <g stroke="#64748b" stroke-width="1.5" fill="none">
      <!-- Central corridor walls -->
      <line x1="60" y1="240" x2="560" y2="240"/>
      <line x1="60" y1="360" x2="560" y2="360"/>

      <!-- Right section divider -->
      <line x1="680" y1="0" x2="680" y2="520"/>

      <!-- WC area walls -->
      <line x1="680" y1="240" x2="920" y2="240"/>
      <line x1="680" y1="360" x2="920" y2="360"/>
      <line x1="800" y1="240" x2="800" y2="360"/>
    </g>

    <!-- Room separators (lighter) -->
    <g stroke="#94a3b8" stroke-width="1" fill="none">
      <!-- Meeting rooms -->
      <rect x="420" y="260" width="120" height="80" rx="0"/>
      <line x1="480" y1="260" x2="480" y2="340"/>

      <!-- Private offices bottom -->
      <rect x="340" y="380" width="80" height="80"/>
      <rect x="420" y="380" width="80" height="80"/>
      <rect x="500" y="380" width="80" height="80"/>

      <!-- Tekjøkken -->
      <rect x="340" y="280" width="70" height="60"/>

      <!-- Copy room -->
      <rect x="260" y="280" width="70" height="60"/>

      <!-- Møterom M1 -->
      <rect x="200" y="380" width="130" height="100"/>
    </g>

    <!-- Spiral staircase -->
    <g transform="translate(100, 420)">
      <circle cx="40" cy="40" r="50" fill="#f1f5f9" stroke="#64748b" stroke-width="1.5"/>
      <circle cx="40" cy="40" r="35" fill="#fff" stroke="#94a3b8" stroke-width="1"/>
      <circle cx="40" cy="40" r="20" fill="#f8fafc" stroke="#94a3b8" stroke-width="1"/>
      <circle cx="40" cy="40" r="5" fill="#64748b"/>
      <!-- Spiral lines -->
      <path d="M 40 40 Q 55 25 75 40 Q 90 55 75 75 Q 55 95 40 80 Q 20 65 40 40" fill="none" stroke="#94a3b8" stroke-width="0.75"/>
    </g>

    <!-- Open office area - Kontorlandskap -->
    <g transform="translate(120, 40)">
      <!-- Desk clusters with refined styling -->
      <!-- Row 1 -->
      <g transform="translate(0, 0)">
        <rect x="0" y="0" width="100" height="60" rx="2" fill="#fff" stroke="#e2e8f0" stroke-width="1"/>
        <rect x="5" y="5" width="42" height="50" rx="1" fill="#f8fafc" stroke="#cbd5e1" stroke-width="0.5"/>
        <rect x="53" y="5" width="42" height="50" rx="1" fill="#f8fafc" stroke="#cbd5e1" stroke-width="0.5"/>
        <circle cx="26" cy="-8" r="6" fill="#64748b" opacity="0.12"/>
        <circle cx="74" cy="-8" r="6" fill="#64748b" opacity="0.12"/>
      </g>

      <g transform="translate(120, 0)">
        <rect x="0" y="0" width="100" height="60" rx="2" fill="#fff" stroke="#e2e8f0" stroke-width="1"/>
        <rect x="5" y="5" width="42" height="50" rx="1" fill="#f8fafc" stroke="#cbd5e1" stroke-width="0.5"/>
        <rect x="53" y="5" width="42" height="50" rx="1" fill="#f8fafc" stroke="#cbd5e1" stroke-width="0.5"/>
        <circle cx="26" cy="-8" r="6" fill="#64748b" opacity="0.12"/>
        <circle cx="74" cy="-8" r="6" fill="#64748b" opacity="0.12"/>
      </g>

      <g transform="translate(240, 0)">
        <rect x="0" y="0" width="100" height="60" rx="2" fill="#fff" stroke="#e2e8f0" stroke-width="1"/>
        <rect x="5" y="5" width="42" height="50" rx="1" fill="#f8fafc" stroke="#cbd5e1" stroke-width="0.5"/>
        <rect x="53" y="5" width="42" height="50" rx="1" fill="#f8fafc" stroke="#cbd5e1" stroke-width="0.5"/>
        <circle cx="26" cy="-8" r="6" fill="#64748b" opacity="0.12"/>
        <circle cx="74" cy="-8" r="6" fill="#64748b" opacity="0.12"/>
      </g>

      <!-- Row 2 -->
      <g transform="translate(0, 100)">
        <rect x="0" y="0" width="100" height="60" rx="2" fill="#fff" stroke="#e2e8f0" stroke-width="1"/>
        <rect x="5" y="5" width="42" height="50" rx="1" fill="#f8fafc" stroke="#cbd5e1" stroke-width="0.5"/>
        <rect x="53" y="5" width="42" height="50" rx="1" fill="#f8fafc" stroke="#cbd5e1" stroke-width="0.5"/>
        <circle cx="26" cy="68" r="6" fill="#64748b" opacity="0.12"/>
        <circle cx="74" cy="68" r="6" fill="#64748b" opacity="0.12"/>
      </g>

      <g transform="translate(120, 100)">
        <rect x="0" y="0" width="100" height="60" rx="2" fill="#fff" stroke="#e2e8f0" stroke-width="1"/>
        <rect x="5" y="5" width="42" height="50" rx="1" fill="#f8fafc" stroke="#cbd5e1" stroke-width="0.5"/>
        <rect x="53" y="5" width="42" height="50" rx="1" fill="#f8fafc" stroke="#cbd5e1" stroke-width="0.5"/>
        <circle cx="26" cy="68" r="6" fill="#64748b" opacity="0.12"/>
        <circle cx="74" cy="68" r="6" fill="#64748b" opacity="0.12"/>
      </g>

      <g transform="translate(240, 100)">
        <rect x="0" y="0" width="100" height="60" rx="2" fill="#fff" stroke="#e2e8f0" stroke-width="1"/>
        <rect x="5" y="5" width="42" height="50" rx="1" fill="#f8fafc" stroke="#cbd5e1" stroke-width="0.5"/>
        <rect x="53" y="5" width="42" height="50" rx="1" fill="#f8fafc" stroke="#cbd5e1" stroke-width="0.5"/>
        <circle cx="26" cy="68" r="6" fill="#64748b" opacity="0.12"/>
        <circle cx="74" cy="68" r="6" fill="#64748b" opacity="0.12"/>
      </g>
    </g>

    <!-- Lysbord area -->
    <g transform="translate(70, 200)">
      <rect x="0" y="0" width="60" height="30" rx="2" fill="#fff" stroke="#94a3b8" stroke-width="1"/>
      <text x="30" y="50" text-anchor="middle" font-size="9" fill="#64748b" font-weight="500">LYSBORD</text>
    </g>

    <!-- Right side meeting furniture -->
    <g transform="translate(700, 40)">
      <!-- Large meeting table -->
      <rect x="0" y="0" width="180" height="80" rx="3" fill="#fff" stroke="#94a3b8" stroke-width="1"/>
      <!-- Chairs around table -->
      <circle cx="-12" cy="20" r="6" fill="#64748b" opacity="0.12"/>
      <circle cx="-12" cy="60" r="6" fill="#64748b" opacity="0.12"/>
      <circle cx="192" cy="20" r="6" fill="#64748b" opacity="0.12"/>
      <circle cx="192" cy="60" r="6" fill="#64748b" opacity="0.12"/>
      <circle cx="45" cy="-12" r="6" fill="#64748b" opacity="0.12"/>
      <circle cx="90" cy="-12" r="6" fill="#64748b" opacity="0.12"/>
      <circle cx="135" cy="-12" r="6" fill="#64748b" opacity="0.12"/>
      <circle cx="45" cy="92" r="6" fill="#64748b" opacity="0.12"/>
      <circle cx="90" cy="92" r="6" fill="#64748b" opacity="0.12"/>
      <circle cx="135" cy="92" r="6" fill="#64748b" opacity="0.12"/>
    </g>

    <!-- Lounge area -->
    <g transform="translate(700, 160)">
      <rect x="0" y="0" width="80" height="50" rx="4" fill="#f8fafc" stroke="#94a3b8" stroke-width="1"/>
      <rect x="100" y="0" width="80" height="50" rx="4" fill="#f8fafc" stroke="#94a3b8" stroke-width="1"/>
      <circle cx="90" cy="25" r="20" fill="#fff" stroke="#94a3b8" stroke-width="1"/>
    </g>

    <!-- WC Section -->
    <g transform="translate(690, 250)">
      <!-- WC rooms -->
      <rect x="0" y="0" width="100" height="100" fill="url(#wcPattern)" stroke="#94a3b8" stroke-width="1"/>
      <line x1="50" y1="0" x2="50" y2="100" stroke="#94a3b8" stroke-width="0.75"/>
      <line x1="0" y1="50" x2="100" y2="50" stroke="#94a3b8" stroke-width="0.75"/>
      <text x="25" y="30" text-anchor="middle" font-size="10" fill="#64748b">WC</text>
      <text x="75" y="30" text-anchor="middle" font-size="10" fill="#64748b">WC</text>
      <text x="25" y="80" text-anchor="middle" font-size="10" fill="#64748b">WC</text>
      <text x="75" y="80" text-anchor="middle" font-size="10" fill="#64748b">WC</text>

      <!-- Forrom -->
      <rect x="120" y="0" width="100" height="100" fill="#f8fafc" stroke="#94a3b8" stroke-width="1"/>
      <text x="170" y="55" text-anchor="middle" font-size="9" fill="#94a3b8">WC Forrom</text>
    </g>

    <!-- Right bottom area -->
    <g transform="translate(700, 380)">
      <rect x="0" y="0" width="200" height="120" fill="#f8fafc" stroke="#94a3b8" stroke-width="1"/>
      <!-- Furniture -->
      <rect x="20" y="20" width="70" height="40" rx="2" fill="#fff" stroke="#cbd5e1" stroke-width="1"/>
      <rect x="110" y="20" width="70" height="40" rx="2" fill="#fff" stroke="#cbd5e1" stroke-width="1"/>
    </g>

    <!-- Room labels -->
    <g font-size="11" fill="#334155" font-weight="500">
      <text x="280" y="130">
        <tspan>Kontorlandskap</tspan>
      </text>
      <text x="280" y="145" font-size="10" fill="#64748b" font-family="'SF Mono', 'Fira Code', monospace">178,7 m²</text>
    </g>

    <g font-size="10" fill="#334155" font-weight="500">
      <!-- Kopirom -->
      <text x="295" y="305" text-anchor="middle">Kopirom</text>
      <text x="295" y="318" font-size="9" fill="#64748b" font-family="'SF Mono', 'Fira Code', monospace">13,6 m²</text>

      <!-- Tekjøkken -->
      <text x="375" y="305" text-anchor="middle">Tekjøkken</text>
      <text x="375" y="318" font-size="9" fill="#64748b" font-family="'SF Mono', 'Fira Code', monospace">17,2 m²</text>

      <!-- Møterom M2 -->
      <text x="440" y="295" text-anchor="middle">Møterom M2</text>
      <text x="440" y="308" font-size="9" fill="#64748b" font-family="'SF Mono', 'Fira Code', monospace">13,1 m²</text>

      <!-- Private offices -->
      <text x="380" y="420" text-anchor="middle">Kontor</text>
      <text x="380" y="433" font-size="9" fill="#64748b" font-family="'SF Mono', 'Fira Code', monospace">9,9 m²</text>

      <text x="460" y="420" text-anchor="middle">Kontor</text>
      <text x="460" y="433" font-size="9" fill="#64748b" font-family="'SF Mono', 'Fira Code', monospace">9,9 m²</text>

      <text x="540" y="420" text-anchor="middle">Stille/Hvile</text>
      <text x="540" y="433" font-size="9" fill="#64748b" font-family="'SF Mono', 'Fira Code', monospace">9,9 m²</text>

      <!-- Møterom M1 -->
      <text x="265" y="430" text-anchor="middle">Møterom M1</text>
      <text x="265" y="445" font-size="9" fill="#64748b" font-family="'SF Mono', 'Fira Code', monospace">25,3 m²</text>
    </g>

    <!-- Small desks in private offices -->
    <g>
      <rect x="350" y="390" width="50" height="30" rx="1" fill="#fff" stroke="#cbd5e1" stroke-width="0.75"/>
      <rect x="430" y="390" width="50" height="30" rx="1" fill="#fff" stroke="#cbd5e1" stroke-width="0.75"/>
      <rect x="510" y="390" width="50" height="30" rx="1" fill="#fff" stroke="#cbd5e1" stroke-width="0.75"/>
    </g>

    <!-- Meeting table in M1 -->
    <g transform="translate(220, 400)">
      <rect x="0" y="0" width="90" height="50" rx="2" fill="#fff" stroke="#94a3b8" stroke-width="1"/>
      <circle cx="-10" cy="12" r="5" fill="#64748b" opacity="0.12"/>
      <circle cx="-10" cy="38" r="5" fill="#64748b" opacity="0.12"/>
      <circle cx="100" cy="12" r="5" fill="#64748b" opacity="0.12"/>
      <circle cx="100" cy="38" r="5" fill="#64748b" opacity="0.12"/>
      <circle cx="30" cy="-10" r="5" fill="#64748b" opacity="0.12"/>
      <circle cx="60" cy="-10" r="5" fill="#64748b" opacity="0.12"/>
      <circle cx="30" cy="60" r="5" fill="#64748b" opacity="0.12"/>
      <circle cx="60" cy="60" r="5" fill="#64748b" opacity="0.12"/>
    </g>

    <!-- Meeting tables in M2 area -->
    <g transform="translate(425, 270)">
      <rect x="0" y="0" width="50" height="30" rx="2" fill="#fff" stroke="#94a3b8" stroke-width="1"/>
    </g>
    <g transform="translate(485, 270)">
      <rect x="0" y="0" width="50" height="30" rx="2" fill="#fff" stroke="#94a3b8" stroke-width="1"/>
    </g>
  </g>

  <!-- Legend -->
  <g transform="translate(80, 640)">
    <text x="0" y="0" font-size="10" font-weight="500" fill="#64748b">TEGNFORKLARING</text>

    <g transform="translate(0, 15)">
      <rect x="0" y="0" width="24" height="14" rx="1" fill="#fff" stroke="#e2e8f0" stroke-width="1"/>
      <text x="32" y="11" font-size="9" fill="#64748b">Arbeidsplass</text>
    </g>

    <g transform="translate(120, 15)">
      <circle cx="7" cy="7" r="6" fill="#64748b" opacity="0.12"/>
      <text x="22" y="11" font-size="9" fill="#64748b">Stol</text>
    </g>

    <g transform="translate(200, 15)">
      <rect x="0" y="0" width="24" height="14" rx="2" fill="#f8fafc" stroke="#94a3b8" stroke-width="1"/>
      <text x="32" y="11" font-size="9" fill="#64748b">Møbel</text>
    </g>

    <g transform="translate(300, 15)">
      <rect x="0" y="0" width="24" height="14" fill="url(#wcPattern)" stroke="#94a3b8" stroke-width="1"/>
      <text x="32" y="11" font-size="9" fill="#64748b">Våtrom</text>
    </g>
  </g>

  <!-- Scale indicator -->
  <g transform="translate(900, 640)">
    <line x1="0" y1="10" x2="100" y2="10" stroke="#64748b" stroke-width="1"/>
    <line x1="0" y1="5" x2="0" y2="15" stroke="#64748b" stroke-width="1"/>
    <line x1="100" y1="5" x2="100" y2="15" stroke="#64748b" stroke-width="1"/>
    <text x="50" y="0" text-anchor="middle" font-size="9" fill="#64748b" font-family="'SF Mono', 'Fira Code', monospace">10 m</text>
  </g>

  <!-- Version info -->
  <text x="1020" y="680" text-anchor="end" font-size="8" fill="#94a3b8">v2.86 | H13 3.etg</text>
</svg>